<?xml version="1.0" encoding="UTF-8"?>
<svg id="Capa_2" data-name="Capa 2" xmlns="http://www.w3.org/2000/svg" viewBox="0 0 235.28 119.59">
  <defs>
    <style>
      .cls-1 {
        fill: #d7d7d7;
      }

      .cls-1, .cls-2, .cls-3, .cls-4 {
        stroke-width: 0px;
      }

      .cls-2 {
        fill: #5fc9df;
      }

      .cls-3 {
        fill: #3691c2;
      }

      .cls-4 {
        fill: #1472aa;
      }
    </style>
  </defs>
  <g id="Capa_1-2" data-name="Capa 1">
    <g>
      <path class="cls-1" d="M38.88,107.18c-.42-.44-.91-.78-1.46-1.02-.55-.24-1.12-.36-1.71-.36-.63,0-1.23.13-1.79.39-.56.26-1.05.62-1.47,1.09-.42.46-.75,1-.99,1.62-.24.61-.36,1.27-.36,1.98s.12,1.35.36,1.96c.24.61.57,1.15.99,1.62.42.46.91.83,1.47,1.09.56.26,1.15.39,1.79.39.6,0,1.17-.12,1.71-.37s1.03-.58,1.46-.99l.37.42c-.31.32-.65.6-1.04.83-.38.24-.79.41-1.22.54-.43.12-.86.18-1.3.18-.72,0-1.4-.15-2.02-.44-.63-.29-1.18-.7-1.66-1.23-.48-.52-.85-1.13-1.12-1.82-.27-.69-.4-1.42-.4-2.18s.13-1.53.4-2.21c.27-.68.64-1.28,1.12-1.8.48-.52,1.04-.92,1.67-1.22.63-.29,1.3-.44,2.01-.44.45,0,.89.06,1.32.18.43.12.83.3,1.2.52.37.22.71.5,1.02.82l-.36.45Z"/>
      <path class="cls-1" d="M44.66,108.14c.71,0,1.35.18,1.91.53.56.35,1,.84,1.32,1.47.32.63.48,1.35.48,2.16s-.16,1.55-.48,2.18c-.32.63-.76,1.12-1.32,1.48-.56.36-1.2.54-1.91.54s-1.35-.18-1.9-.54c-.56-.36-1-.85-1.32-1.48-.32-.63-.48-1.36-.48-2.18s.16-1.53.48-2.16c.32-.63.76-1.12,1.32-1.47.56-.35,1.19-.53,1.9-.53ZM44.66,108.72c-.61,0-1.14.15-1.61.46-.47.31-.83.73-1.1,1.27-.27.54-.4,1.16-.4,1.86s.13,1.33.4,1.87c.27.54.64.97,1.1,1.27.47.3,1,.46,1.61.46s1.14-.15,1.61-.46c.47-.3.83-.73,1.1-1.27s.4-1.17.4-1.87-.14-1.33-.4-1.86c-.27-.54-.64-.96-1.1-1.27-.47-.31-1-.46-1.61-.46Z"/>
      <path class="cls-1" d="M51.13,108.16h.61v8.32h-.61v-8.32ZM57.11,111.52c0-.87-.22-1.56-.65-2.04-.43-.48-1.03-.73-1.8-.73-.92.02-1.64.36-2.16,1.01s-.78,1.53-.78,2.64h-.32c0-.92.13-1.69.4-2.31.27-.62.66-1.1,1.18-1.43.51-.33,1.12-.5,1.82-.51.61,0,1.13.13,1.56.39.44.26.77.63,1,1.12.23.49.35,1.07.35,1.75v5.07h-.6v-4.96Z"/>
      <path class="cls-1" d="M64.7,109.3c-.26-.19-.55-.34-.88-.44s-.67-.15-1.02-.15c-.53,0-.97.12-1.33.35s-.54.61-.54,1.12c0,.38.11.68.32.9.21.21.48.39.82.53.33.14.68.27,1.06.38.37.12.73.26,1.06.43s.6.4.82.69c.21.29.32.68.32,1.17s-.12.93-.37,1.27c-.25.33-.57.57-.97.73-.4.15-.82.23-1.27.23-.52,0-1.02-.1-1.51-.3-.48-.2-.9-.49-1.25-.86l.27-.46c.33.34.71.61,1.14.79.43.19.89.28,1.37.28.35,0,.68-.06.98-.17s.54-.28.73-.51c.19-.23.29-.52.3-.89,0-.39-.09-.71-.3-.94-.21-.23-.48-.42-.81-.56-.33-.14-.69-.28-1.07-.4-.38-.12-.74-.27-1.07-.44-.34-.17-.61-.4-.82-.68-.21-.28-.32-.66-.32-1.13s.11-.87.34-1.18c.23-.3.53-.53.9-.68.37-.15.78-.22,1.23-.22.41,0,.8.06,1.17.18s.69.27.98.46l-.26.51Z"/>
      <path class="cls-1" d="M68.26,113.12c0,.86.21,1.54.63,2.03.42.49,1.01.74,1.77.74.9-.02,1.61-.36,2.12-1.02.51-.66.76-1.53.76-2.63h.29c0,.9-.13,1.66-.4,2.3-.26.63-.64,1.12-1.14,1.44s-1.08.5-1.77.52c-.6,0-1.12-.13-1.55-.39-.43-.26-.75-.64-.98-1.13-.23-.49-.34-1.07-.34-1.75v-5.07h.59v4.96ZM73.55,108.16h.59v8.32h-.59v-8.32Z"/>
      <path class="cls-1" d="M77.8,104.61h.6v11.88h-.6v-11.88Z"/>
      <path class="cls-1" d="M81.22,108.35h4.22v.54h-4.22v-.54ZM82.89,114.11c0,.6.1,1.05.31,1.34s.5.45.89.45c.22-.01.44-.06.66-.14s.42-.2.61-.36l.23.48c-.23.19-.48.34-.74.44-.26.1-.54.16-.83.17-.36,0-.66-.08-.92-.25-.25-.17-.45-.42-.58-.77-.14-.35-.2-.78-.2-1.29v-7.89h.58v7.81Z"/>
      <path class="cls-1" d="M90.76,108.14c.71,0,1.35.18,1.91.53.56.35,1,.84,1.32,1.47.32.63.48,1.35.48,2.16s-.16,1.55-.48,2.18c-.32.63-.76,1.12-1.32,1.48-.56.36-1.2.54-1.91.54s-1.35-.18-1.9-.54c-.56-.36-1-.85-1.32-1.48-.32-.63-.48-1.36-.48-2.18s.16-1.53.48-2.16c.32-.63.76-1.12,1.32-1.47.56-.35,1.19-.53,1.9-.53ZM90.76,108.72c-.61,0-1.14.15-1.61.46-.47.31-.83.73-1.1,1.27-.27.54-.4,1.16-.4,1.86s.13,1.33.4,1.87c.27.54.64.97,1.1,1.27.47.3,1,.46,1.61.46s1.14-.15,1.61-.46c.47-.3.83-.73,1.1-1.27s.4-1.17.4-1.87-.14-1.33-.4-1.86c-.27-.54-.64-.96-1.1-1.27-.47-.31-1-.46-1.61-.46Z"/>
      <path class="cls-1" d="M97.23,108.16h.61v8.32h-.61v-8.32ZM100.63,108.77c-.59,0-1.09.15-1.51.45-.42.3-.74.72-.97,1.27s-.33,1.19-.33,1.94l-.32-.02c0-.89.12-1.64.37-2.27.25-.63.61-1.11,1.08-1.46.47-.34,1.03-.52,1.67-.53v.62Z"/>
      <path class="cls-1" d="M103.16,105.2c.14,0,.26.05.36.16.1.11.14.24.14.4,0,.15-.05.28-.14.39-.1.11-.22.17-.36.17-.14,0-.25-.06-.35-.17-.1-.11-.15-.24-.15-.39,0-.16.05-.29.15-.4.1-.11.22-.16.35-.16ZM102.85,108.16h.59v8.32h-.59v-8.32Z"/>
      <path class="cls-1" d="M109.22,112.39c-.73,0-1.29.14-1.69.42-.39.28-.59.7-.59,1.24s.18,1.01.54,1.36.84.53,1.45.53c.48,0,.91-.08,1.29-.23s.71-.39.99-.72c.28-.33.49-.74.65-1.24l.27.45c-.3.8-.73,1.38-1.3,1.75-.57.37-1.23.55-1.98.55-.49,0-.92-.11-1.3-.32-.37-.21-.67-.5-.87-.87-.21-.37-.31-.78-.31-1.24,0-.69.25-1.24.75-1.63.5-.39,1.18-.59,2.05-.59h2.84v.54h-2.78ZM111.83,110.99c0-.71-.2-1.27-.57-1.68-.37-.41-.93-.61-1.68-.61-.46,0-.9.1-1.31.3-.41.2-.82.46-1.21.79l-.29-.46c.3-.25.6-.46.89-.63.3-.18.61-.31.94-.41.33-.1.68-.14,1.06-.14.88,0,1.56.25,2.03.75.47.5.71,1.19.72,2.05l.03,5.54h-.59l-.03-5.49Z"/>
      <path class="cls-1" d="M119.7,105.29h6.5v.61h-5.89v4.55h5.25v.61h-5.25v4.82h6.1v.61h-6.7v-11.19Z"/>
      <path class="cls-1" d="M129.37,108.16h.59v8.32h-.59v-8.32ZM135.24,111.52c0-.87-.21-1.56-.64-2.04-.43-.48-1.02-.73-1.77-.73-.89.02-1.59.36-2.1,1.01-.51.65-.76,1.53-.76,2.64h-.3c0-.92.13-1.69.4-2.31.26-.62.65-1.1,1.15-1.43.5-.33,1.09-.5,1.79-.51.59,0,1.09.13,1.52.39.43.26.75.63.98,1.12.23.49.34,1.07.34,1.75v5.07h-.59v-4.96ZM141.09,111.52c0-.87-.21-1.56-.63-2.04-.42-.48-1.01-.73-1.77-.73-.9.02-1.6.36-2.1,1.01s-.75,1.53-.75,2.64h-.3c0-.92.13-1.69.4-2.31.26-.62.64-1.1,1.14-1.43.49-.33,1.08-.5,1.77-.51.6,0,1.12.13,1.54.39.42.26.75.63.97,1.12.23.49.34,1.07.34,1.75v5.07h-.59v-4.96Z"/>
      <path class="cls-1" d="M145.08,108.16h.6v11.43h-.6v-11.43ZM148.87,108.14c.7,0,1.32.18,1.87.54.54.36.97.85,1.28,1.48s.47,1.36.47,2.18-.15,1.52-.46,2.15c-.31.63-.73,1.12-1.28,1.48s-1.17.54-1.88.54-1.31-.18-1.84-.53c-.54-.35-.96-.84-1.25-1.47s-.45-1.35-.45-2.16.15-1.56.45-2.19c.3-.63.72-1.12,1.25-1.47s1.15-.53,1.84-.53ZM148.79,108.72c-.6,0-1.13.15-1.6.46-.47.31-.84.74-1.1,1.28-.26.54-.4,1.16-.4,1.86s.13,1.31.4,1.85c.26.54.63.97,1.1,1.28.47.32,1,.47,1.6.47s1.14-.16,1.61-.47c.47-.31.83-.74,1.1-1.28.27-.54.4-1.16.4-1.85s-.14-1.31-.4-1.86c-.27-.54-.64-.97-1.1-1.28-.47-.31-1-.46-1.61-.46Z"/>
      <path class="cls-1" d="M155.26,108.16h.61v8.32h-.61v-8.32ZM158.66,108.77c-.59,0-1.09.15-1.51.45-.42.3-.74.72-.97,1.27s-.33,1.19-.33,1.94l-.32-.02c0-.89.12-1.64.37-2.27.25-.63.61-1.11,1.08-1.46.47-.34,1.03-.52,1.67-.53v.62Z"/>
      <path class="cls-1" d="M166.67,111.92c-.04-.64-.18-1.2-.43-1.68-.24-.48-.58-.86-1.02-1.13-.43-.27-.93-.41-1.5-.41-.6,0-1.13.15-1.59.46-.47.3-.83.73-1.1,1.26-.26.54-.4,1.16-.4,1.86s.13,1.35.4,1.9c.27.55.64.98,1.11,1.29s1,.46,1.6.46c1.06,0,1.9-.39,2.54-1.17l.35.4c-.34.42-.76.74-1.26.98s-1.05.35-1.65.35c-.7,0-1.33-.18-1.88-.54s-.99-.85-1.3-1.48c-.32-.63-.48-1.35-.48-2.16s.16-1.53.48-2.16.75-1.12,1.3-1.48c.55-.36,1.18-.54,1.88-.54.74,0,1.37.18,1.9.54s.92.87,1.2,1.53c.27.66.41,1.41.4,2.25h-6.72v-.54h6.17Z"/>
      <path class="cls-1" d="M173.6,109.3c-.26-.19-.55-.34-.88-.44s-.67-.15-1.02-.15c-.53,0-.97.12-1.33.35s-.54.61-.54,1.12c0,.38.11.68.32.9.21.21.48.39.82.53.33.14.68.27,1.06.38.37.12.73.26,1.06.43s.6.4.82.69c.21.29.32.68.32,1.17s-.12.93-.37,1.27c-.25.33-.57.57-.97.73-.4.15-.82.23-1.27.23-.52,0-1.02-.1-1.51-.3-.48-.2-.9-.49-1.25-.86l.27-.46c.33.34.71.61,1.14.79.43.19.89.28,1.37.28.35,0,.68-.06.98-.17s.54-.28.73-.51c.19-.23.29-.52.3-.89,0-.39-.09-.71-.3-.94-.21-.23-.48-.42-.81-.56-.33-.14-.69-.28-1.07-.4-.38-.12-.74-.27-1.07-.44-.34-.17-.61-.4-.82-.68-.21-.28-.32-.66-.32-1.13s.11-.87.34-1.18c.23-.3.53-.53.9-.68.37-.15.78-.22,1.23-.22.41,0,.8.06,1.17.18s.69.27.98.46l-.26.51Z"/>
      <path class="cls-1" d="M179.01,112.39c-.73,0-1.29.14-1.69.42-.39.28-.59.7-.59,1.24s.18,1.01.54,1.36.84.53,1.45.53c.48,0,.91-.08,1.29-.23s.71-.39.99-.72c.28-.33.49-.74.65-1.24l.27.45c-.3.8-.73,1.38-1.3,1.75-.57.37-1.23.55-1.98.55-.49,0-.92-.11-1.3-.32-.37-.21-.67-.5-.87-.87-.21-.37-.31-.78-.31-1.24,0-.69.25-1.24.75-1.63.5-.39,1.18-.59,2.05-.59h2.84v.54h-2.78ZM181.62,110.99c0-.71-.2-1.27-.57-1.68-.37-.41-.93-.61-1.68-.61-.46,0-.9.1-1.31.3-.41.2-.82.46-1.21.79l-.29-.46c.3-.25.6-.46.89-.63.3-.18.61-.31.94-.41.33-.1.68-.14,1.06-.14.88,0,1.56.25,2.03.75.47.5.71,1.19.72,2.05l.03,5.54h-.59l-.03-5.49Z"/>
      <path class="cls-1" d="M185.57,108.16h.61v8.32h-.61v-8.32ZM188.97,108.77c-.59,0-1.09.15-1.51.45-.42.3-.74.72-.97,1.27s-.33,1.19-.33,1.94l-.32-.02c0-.89.12-1.64.37-2.27.25-.63.61-1.11,1.08-1.46.47-.34,1.03-.52,1.67-.53v.62Z"/>
      <path class="cls-1" d="M191.49,105.2c.14,0,.26.05.36.16.1.11.14.24.14.4,0,.15-.05.28-.14.39-.1.11-.22.17-.36.17-.14,0-.25-.06-.35-.17-.1-.11-.15-.24-.15-.39,0-.16.05-.29.15-.4.1-.11.22-.16.35-.16ZM191.19,108.16h.59v8.32h-.59v-8.32Z"/>
      <path class="cls-1" d="M197.56,112.39c-.73,0-1.29.14-1.69.42-.39.28-.59.7-.59,1.24s.18,1.01.54,1.36.84.53,1.45.53c.48,0,.91-.08,1.29-.23s.71-.39.99-.72c.28-.33.49-.74.65-1.24l.27.45c-.3.8-.73,1.38-1.3,1.75-.57.37-1.23.55-1.98.55-.49,0-.92-.11-1.3-.32-.37-.21-.67-.5-.87-.87-.21-.37-.31-.78-.31-1.24,0-.69.25-1.24.75-1.63.5-.39,1.18-.59,2.05-.59h2.84v.54h-2.78ZM200.17,110.99c0-.71-.2-1.27-.57-1.68-.37-.41-.93-.61-1.68-.61-.46,0-.9.1-1.31.3-.41.2-.82.46-1.21.79l-.29-.46c.3-.25.6-.46.89-.63.3-.18.61-.31.94-.41.33-.1.68-.14,1.06-.14.88,0,1.56.25,2.03.75.47.5.71,1.19.72,2.05l.03,5.54h-.59l-.03-5.49Z"/>
      <path class="cls-1" d="M204.19,104.61h.6v11.88h-.6v-11.88Z"/>
    </g>
    <g>
      <path class="cls-1" d="M29.09,81.06c-.25,2.19-1.01,4.12-2.27,5.79-1.27,1.66-2.94,2.96-5.02,3.89s-4.46,1.39-7.13,1.39c-2.92,0-5.48-.55-7.69-1.66-2.21-1.11-3.92-2.66-5.14-4.65-1.22-1.99-1.83-4.31-1.83-6.96s.61-4.97,1.83-6.96c1.22-1.99,2.94-3.54,5.14-4.65,2.21-1.11,4.77-1.66,7.69-1.66,2.67,0,5.05.46,7.13,1.39s3.76,2.22,5.02,3.87c1.27,1.65,2.03,3.59,2.27,5.8h-6.45c-.23-1.15-.69-2.14-1.38-2.95s-1.59-1.44-2.71-1.88-2.42-.66-3.89-.66c-1.7,0-3.16.31-4.38.93-1.22.62-2.16,1.51-2.82,2.67-.66,1.15-.98,2.52-.98,4.11s.33,2.95.98,4.11c.66,1.15,1.59,2.04,2.82,2.67s2.68.93,4.38.93c1.47,0,2.77-.21,3.89-.65,1.12-.43,2.03-1.05,2.71-1.87s1.15-1.81,1.38-2.99h6.45Z"/>
      <path class="cls-1" d="M46.5,92.13c-2.99,0-5.61-.55-7.86-1.66-2.25-1.11-4-2.66-5.25-4.65-1.24-1.99-1.87-4.31-1.87-6.96s.62-4.97,1.87-6.96c1.25-1.99,2.99-3.54,5.25-4.65,2.25-1.11,4.87-1.66,7.86-1.66s5.61.56,7.86,1.66c2.25,1.11,4.01,2.66,5.26,4.65,1.26,1.99,1.88,4.31,1.88,6.96s-.63,4.97-1.88,6.96-3.01,3.54-5.26,4.65c-2.25,1.11-4.87,1.66-7.86,1.66ZM46.5,86.39c1.77,0,3.28-.3,4.55-.9,1.27-.6,2.25-1.46,2.94-2.6.69-1.13,1.04-2.48,1.04-4.04s-.35-2.91-1.04-4.04c-.69-1.13-1.67-2-2.94-2.6-1.27-.6-2.78-.9-4.55-.9s-3.25.3-4.51.9c-1.27.6-2.25,1.47-2.95,2.6-.7,1.13-1.05,2.48-1.05,4.04s.35,2.91,1.05,4.04c.7,1.13,1.69,2,2.95,2.6,1.27.6,2.77.9,4.51.9Z"/>
      <polygon class="cls-1" points="86.83 66.13 86.83 84.35 73.63 66.13 65.31 66.13 65.31 91.59 71.52 91.59 71.52 73 84.97 91.59 93.04 91.59 93.04 66.13 86.83 66.13"/>
      <polygon class="cls-1" points="104.12 86.36 104.95 81.23 119.42 81.23 119.42 76.48 104.95 76.48 104.12 71.35 120.34 71.35 120.34 66.13 97.22 66.13 99.19 78.86 97.22 91.59 120.51 91.59 120.51 86.36 104.12 86.36"/>
      <path class="cls-1" d="M152.25,81.06c-.25,2.19-1.01,4.12-2.27,5.79-1.27,1.66-2.94,2.96-5.02,3.89-2.08.93-4.46,1.39-7.13,1.39-2.92,0-5.48-.55-7.69-1.66-2.21-1.11-3.92-2.66-5.14-4.65-1.22-1.99-1.83-4.31-1.83-6.96s.61-4.97,1.83-6.96c1.22-1.99,2.94-3.54,5.14-4.65,2.21-1.11,4.77-1.66,7.69-1.66,2.67,0,5.05.46,7.13,1.39s3.76,2.22,5.02,3.87c1.27,1.65,2.03,3.59,2.27,5.8h-6.45c-.23-1.15-.69-2.14-1.38-2.95-.69-.81-1.59-1.44-2.71-1.88s-2.42-.66-3.89-.66c-1.7,0-3.16.31-4.38.93-1.22.62-2.16,1.51-2.82,2.67-.66,1.15-.98,2.52-.98,4.11s.33,2.95.98,4.11c.66,1.15,1.59,2.04,2.82,2.67s2.68.93,4.38.93c1.47,0,2.77-.21,3.89-.65,1.12-.43,2.03-1.05,2.71-1.87s1.15-1.81,1.38-2.99h6.45Z"/>
      <polygon class="cls-1" points="179.2 66.13 152.96 66.13 152.96 71.8 162.87 71.8 162.87 91.59 169.29 91.59 169.29 71.8 179.2 71.8 179.2 66.13"/>
      <path class="cls-1" d="M200.72,91.59h6.82l-11.75-25.46h-8.32l-11.75,25.46h6.82l2.26-5.13h13.63l2.27,5.13ZM187.1,81.3l4.53-10.27,4.54,10.27h-9.07Z"/>
      <path class="cls-1" d="M227.84,91.59h7.43l-7.62-9.69c.82-.17,1.59-.41,2.29-.74,1.43-.67,2.53-1.6,3.33-2.8.79-1.2,1.19-2.59,1.19-4.17s-.4-3.01-1.19-4.21c-.79-1.2-1.9-2.14-3.33-2.82-1.42-.68-3.09-1.02-4.99-1.02h-14.83v25.46h6.42v-9.44h4.04l7.26,9.44ZM216.54,71.01h7.57c1.2,0,2.15.28,2.85.83.7.56,1.05,1.33,1.05,2.33s-.35,1.77-1.05,2.32c-.7.56-1.65.83-2.85.83h-7.57v-6.31Z"/>
    </g>
    <g>
      <g>
        <path class="cls-2" d="M165.03,12.43c-2.4-3.91-5.75-6.96-10.04-9.15-4.29-2.19-9.28-3.28-14.98-3.28-5.16,0-9.75.89-13.78,2.68-3.43,1.53-6.3,3.57-8.6,6.14.4.44.78.89,1.14,1.36,2.47,3.22,3.95,6.97,4.43,11.26h.26c.44-2.37,1.4-4.41,2.87-6.13,1.47-1.72,3.36-3.05,5.67-3.99,2.31-.94,5-1.41,8.07-1.41,3.51,0,6.55.66,9.1,1.98,2.56,1.32,4.53,3.19,5.9,5.63,1.38,2.43,2.07,5.3,2.07,8.61s-.69,6.18-2.07,8.61c-1.38,2.43-3.35,4.31-5.9,5.63-2.56,1.32-5.59,1.98-9.1,1.98-3.07,0-5.76-.46-8.07-1.37-2.31-.91-4.2-2.23-5.67-3.95-1.47-1.72-2.42-3.79-2.87-6.2h-.26c-.49,4.24-1.97,7.99-4.43,11.22-.36.47-.75.93-1.14,1.37,2.3,2.58,5.16,4.64,8.6,6.17,4.03,1.79,8.62,2.68,13.78,2.68,5.69,0,10.69-1.09,14.98-3.28,4.29-2.19,7.64-5.24,10.04-9.15,2.4-3.91,3.6-8.47,3.6-13.7s-1.2-9.79-3.6-13.7Z"/>
        <path class="cls-3" d="M112.06,30.82h-.26c-.44,2.41-1.4,4.48-2.87,6.2-1.47,1.72-3.36,3.04-5.67,3.95-2.31.92-5,1.37-8.07,1.37-3.51,0-6.55-.66-9.1-1.98-2.56-1.32-4.53-3.19-5.9-5.63-1.38-2.43-2.07-5.3-2.07-8.61s.69-6.17,2.07-8.61c1.38-2.43,3.35-4.31,5.9-5.63,2.56-1.32,5.59-1.98,9.1-1.98,3.07,0,5.76.47,8.07,1.41,2.31.94,4.2,2.27,5.67,3.99,1.47,1.72,2.42,3.76,2.87,6.13h.26c.49-4.29,1.97-8.04,4.43-11.26.36-.47.75-.92,1.14-1.36-2.3-2.57-5.16-4.62-8.6-6.14-4.03-1.79-8.62-2.68-13.78-2.68-5.69,0-10.69,1.09-14.98,3.28-4.29,2.19-7.64,5.24-10.04,9.15s-3.6,8.47-3.6,13.7,1.2,9.79,3.6,13.7c2.4,3.91,5.75,6.96,10.04,9.15,4.29,2.19,9.28,3.28,14.98,3.28,5.16,0,9.75-.9,13.78-2.68,3.44-1.52,6.3-3.58,8.6-6.17-.4-.44-.78-.9-1.14-1.37-2.47-3.24-3.95-6.98-4.43-11.22Z"/>
      </g>
      <g>
        <path class="cls-4" d="M118.81,42.05c2.47-3.24,3.95-6.98,4.43-11.22h-11.15c.49,4.24,1.97,7.99,4.43,11.22.36.47.75.93,1.14,1.37.4-.44.78-.9,1.14-1.37Z"/>
        <path class="cls-4" d="M116.52,10.19c-2.47,3.22-3.95,6.97-4.43,11.26h11.15c-.49-4.29-1.97-8.04-4.43-11.26-.36-.47-.75-.92-1.14-1.36-.4.44-.78.89-1.14,1.36Z"/>
      </g>
    </g>
  </g>
</svg>