<svg width="150" height="83" viewBox="0 0 150 83" fill="none" xmlns="http://www.w3.org/2000/svg">
<path d="M83.5787 48.5514C84.2331 52.3479 85.6373 55.6041 87.7982 58.3128C89.9591 61.0214 92.7403 63.0949 96.1418 64.5405C99.5433 65.9861 103.504 66.7089 108.016 66.7089C113.183 66.7089 117.648 65.6721 121.411 63.5987C125.174 61.5252 128.071 58.5683 130.095 54.7353C132.127 50.9023 133.136 46.383 133.136 41.1701C133.136 35.9572 132.12 31.4452 130.095 27.6122C128.071 23.7792 125.174 20.8223 121.411 18.7489C117.648 16.6754 113.183 15.6387 108.016 15.6387C103.504 15.6387 99.5433 16.3761 96.1418 17.8508C92.7403 19.3256 89.9591 21.421 87.7982 24.1297C85.6373 26.8383 84.2331 30.058 83.5787 33.7888H66.7961C67.5187 27.0354 69.6932 21.1217 73.3197 16.0548C76.9529 10.9879 81.7246 7.04543 87.6482 4.23456C93.5719 1.40909 100.327 0 107.914 0C116.285 0 123.633 1.72303 129.939 5.16908C136.251 8.61513 141.172 13.4192 144.703 19.5739C148.234 25.7286 150 32.9273 150 41.1555C150 49.391 148.234 56.5824 144.703 62.7371C141.172 68.8991 136.251 73.6959 129.939 77.1419C123.626 80.588 116.285 82.3183 107.914 82.3183C100.327 82.3183 93.5719 80.9092 87.6482 78.0984C81.7314 75.2875 76.9529 71.3231 73.3197 66.227C69.6932 61.1236 67.5187 55.2318 66.7961 48.5441H83.5787V48.5514Z" fill="#5FC9DF"/>
<path d="M83.2039 48.5516C82.4813 55.2393 80.3068 61.1312 76.6803 66.2346C73.0471 71.3379 68.2754 75.2951 62.3518 78.1059C56.4281 80.9168 49.6796 82.3259 42.0859 82.3259C33.7151 82.3259 26.3667 80.6028 20.0614 77.1495C13.7492 73.7034 8.82754 68.8994 5.29652 62.7447C1.76551 56.59 0 49.3913 0 41.1631C0 32.9349 1.76551 25.7361 5.29652 19.5814C8.82754 13.4267 13.7492 8.6227 20.0614 5.17665C26.3736 1.73059 33.7151 0.00756836 42.0859 0.00756836C49.6728 0.00756836 56.4281 1.41665 62.3518 4.22752C68.2686 7.04569 73.0471 10.9809 76.6803 16.0478C80.3068 21.1146 82.4813 27.0284 83.2039 33.7818H66.4213C65.7669 30.051 64.3627 26.8313 62.2018 24.1226C60.0409 21.414 57.2597 19.3186 53.8582 17.8438C50.4567 16.369 46.4963 15.6316 41.9837 15.6316C36.8167 15.6316 32.3517 16.6684 28.589 18.7418C24.8262 20.8153 21.9291 23.7722 19.9046 27.6052C17.8732 31.4382 16.8644 35.9575 16.8644 41.1631C16.8644 46.3687 17.88 50.8879 19.9046 54.7283C21.9291 58.5613 24.8262 61.5181 28.589 63.5916C32.3517 65.6651 36.8167 66.7018 41.9837 66.7018C46.4963 66.7018 50.4567 65.979 53.8582 64.5334C57.2597 63.0951 60.0409 61.0144 62.2018 58.3057C64.3627 55.5971 65.7669 52.3408 66.4213 48.5443H83.2039V48.5516Z" fill="#3691C2"/>
<path d="M74.9891 66.2269C78.6156 61.1235 80.7901 55.2316 81.5127 48.5439H65.1118C65.8344 55.2316 68.0089 61.1235 71.6353 66.2269C72.167 66.9716 72.7328 67.6871 73.3122 68.388C73.8917 67.6871 74.4574 66.9716 74.9891 66.2269Z" fill="#1472AA"/>
<path d="M71.6353 16.04C68.0089 21.1069 65.8344 27.0207 65.1118 33.7741H81.5127C80.7901 27.0207 78.6156 21.1069 74.9891 16.04C74.4574 15.2953 73.8917 14.5871 73.3122 13.8936C72.7328 14.5871 72.167 15.2953 71.6353 16.04Z" fill="#1472AA"/>
</svg>
