<?xml version="1.0" encoding="UTF-8"?>
<svg id="Capa_2" xmlns="http://www.w3.org/2000/svg" viewBox="0 0 695.99 696.69">
  <defs>
    <style>
      .cls-1 {
        fill: #fff;
      }
    </style>
  </defs>
  <g id="Capa_1-2" data-name="Capa_1">
    <path class="cls-1" d="M349.55.14c17.89-.63,36.54.9,54.93,4.27,15.57,2.85,31.18,6.09,46.27,10.78,40.47,12.59,77.61,31.84,111.06,58.07,22.68,17.78,43.15,37.76,60.52,60.75,8.36,11.07,16.35,22.48,23.67,34.25,10.67,17.17,19.3,35.41,26.67,54.27,8.88,22.74,14.81,46.21,18.88,70.23,4.13,24.31,5.11,48.79,4.06,73.35-.48,11.15-1.45,22.34-3.15,33.37-1.79,11.56-4.56,22.98-7.2,34.4-4.45,19.29-11.18,37.83-19.21,55.9-8.66,19.49-19.05,37.99-31.11,55.58-11.45,16.7-24.26,32.26-38.41,46.71-17.22,17.58-36,33.29-56.58,46.82-15.09,9.92-30.8,18.71-47.21,26.27-20.67,9.53-42.11,16.84-64.22,22.11-33.59,8.02-67.7,10.97-102.15,8.63-13.74-.93-27.59-2.17-41.05-4.93-16.96-3.49-33.84-7.89-50.26-13.38-14.87-4.97-29.33-11.41-43.5-18.16-15.78-7.52-30.58-16.85-44.88-27-14.83-10.53-28.88-21.99-41.64-34.88-10.36-10.47-20.4-21.35-29.56-32.87-9.3-11.7-18.02-23.99-25.75-36.78-7.44-12.31-13.53-25.46-19.76-38.46-7.14-14.9-12.64-30.47-16.86-46.45-2.52-9.54-4.55-19.22-6.65-28.87C1.05,389.36-.09,364.23,0,338.99c.01-2.92.78-4.09,3.91-3.95,11.94.53,23.9.79,35.84,1.28,4.08.17,4.39.74,4.48,4.69.27,11.62-.11,23.32,1.11,34.85,1.46,13.79,3.48,27.64,6.77,41.09,3.69,15.12,8.46,30.05,13.88,44.65,5.51,14.85,12.99,28.84,21.09,42.53,12.07,20.39,26.44,38.96,42.84,55.95,19.78,20.49,42.04,37.88,66.81,52.05,19.59,11.21,40.1,20.18,61.67,26.83,25.48,7.86,51.48,12.4,78.13,13.26,2.48.08,3.5-.63,4.1-3.29,3.88-17.15,7.54-34.37,12.22-51.3,4.53-16.4,9.68-32.67,15.5-48.66,5.93-16.29,12.81-32.25,19.65-48.19,9.55-22.26,20.67-43.77,32.99-64.61,8.71-14.74,17.99-29.15,27.57-43.34,8.37-12.4,17.18-24.54,26.38-36.33,8.14-10.43,16.83-20.47,25.76-30.23,11.06-12.08,22.19-24.14,34.08-35.38,13.4-12.65,27.35-24.79,41.68-36.38,13.06-10.56,26.88-20.2,40.51-30.04,6.77-4.89,6.87-4.66,3.05-12.11-9.99-19.46-21.57-37.91-35.32-54.95-13.13-16.27-27.76-31.11-43.89-44.39-22.86-18.81-47.96-34.01-75.28-45.46-15.55-6.52-31.51-11.7-47.98-15.52-18.91-4.39-38.01-7.06-57.35-7.98-17.29-.82-34.51.16-51.69,2.47-15.65,2.1-31.05,5.25-46.19,9.66-18.19,5.3-35.73,12.24-52.5,21.07-7.58,3.99-14.95,8.38-22.39,12.64-1.85,1.06-3.14.89-4.35-1.01-6.8-10.74-13.66-21.44-20.51-32.14-1.41-2.2-.18-3.46,1.56-4.48,6.83-3.99,13.59-8.15,20.56-11.88,17.56-9.39,35.8-17.25,54.73-23.4,15.59-5.07,31.47-8.97,47.65-11.81,20.4-3.58,40.89-5.55,62.46-5.04Z"/>
    <path class="cls-1" d="M354.31,186.36c-.24,1.19-.64,2.38-.68,3.58-1.09,26.59-2.11,53.19-3.22,79.79-.42,10.09-1.05,20.17-1.46,30.26-.11,2.65-1.14,3.6-3.77,3.56-8.37-.1-16.74-.08-25.1.04-2.92.04-3.7-1.08-3.53-3.92,1.83-29.26,3.48-58.53,5.33-87.79,1.25-19.83,2.79-39.64,4.04-59.47.2-3.23,1.34-4.22,4.56-4.18,12.93.16,25.87.12,38.8.02,2.37-.02,3.81.43,4.52,2.98,1.96,7.11,4.14,14.15,6.25,21.21,3.62,12.16,7.43,24.26,10.82,36.48,2.17,7.83,3.79,15.82,5.55,23.76,1.31,5.93,2.44,11.91,3.7,17.86.18.87.65,1.68,1.35,3.43.96-1.81,1.69-2.72,1.96-3.75,3.1-11.97,5.82-24.04,9.25-35.91,4.39-15.2,9.34-30.25,14.03-45.36,1.81-5.81,3.65-11.6,5.36-17.44.68-2.33,1.89-3.29,4.41-3.27,13.04.1,26.08.07,39.13,0,2.74-.01,3.77.98,3.89,3.83.76,18.02,1.67,36.03,2.6,54.04,1.11,21.48,2.28,42.95,3.44,64.42.53,9.76,1.02,19.52,1.66,29.27.19,2.88-.83,3.81-3.68,3.77-9.02-.13-18.04-.08-27.06,0-2.56.03-3.32-1.02-3.4-3.5-.73-22.36-1.62-44.71-2.35-67.07-.47-14.54-.74-29.09-1.14-43.64-.04-1.39-.35-2.78-.54-4.17-.36-.02-.73-.05-1.09-.07-.6,2-1.22,3.99-1.81,5.99-5.33,18-10.56,36.03-16.01,53.99-5.17,17.03-10.57,33.98-15.85,50.98-1.5,4.83-1.47,4.83-6.51,4.84-6.3,0-12.61,0-18.91.07-2.52.03-3.96-.86-4.67-3.47-4.6-16.96-9.47-33.84-13.97-50.83-3.47-13.11-6.58-26.31-9.72-39.5-1.43-6-2.55-12.08-3.87-18.11-.21-.98-.74-1.89-1.12-2.83-.39.03-.78.06-1.17.09Z"/>
    <path class="cls-1" d="M132.84,219.46c3.72,1.84,6.77,3.2,9.67,4.81,12.2,6.78,18.56,17.35,19.37,31.13,1.3,22.11-12.12,37.82-32.2,44.13-12.62,3.96-25.59,5.66-38.82,5.51-6.74-.08-13.49.21-20.21-.07-6.93-.3-13.86-.99-20.75-1.8-1.01-.12-2.26-1.76-2.63-2.94-.46-1.49-.13-3.23-.13-4.86,0-46.84.01-93.68.02-140.52,0-4.07.48-4.43,4.62-5.02,20.53-2.93,41.14-3.35,61.77-1.63,10.41.87,20.24,3.97,28.81,10.22,10.16,7.41,14.99,17.44,14.22,30.03-.81,13.23-8.18,21.98-19.37,28.1-1.34.73-2.55,1.69-4.37,2.91ZM81.88,256.8s.03,0,.04,0c0,6.19.06,12.37-.03,18.56-.04,2.56.96,4.06,3.54,3.93,7.44-.37,14.98-.27,22.29-1.5,10.1-1.69,16.91-9.82,17.63-19.49.78-10.45-6.07-19.69-17.37-21.78-7.38-1.37-15.06-1.13-22.6-1.68-2.8-.2-3.57,1.2-3.54,3.73.08,6.08.03,12.15.03,18.23ZM81.88,191.43s.03,0,.04,0c0,4.99.12,9.99-.05,14.98-.08,2.29.81,3.24,2.94,3.26,7.59.08,15.17.21,22.59-1.93,9.27-2.68,14.93-10.03,14.24-18.85-.64-8.15-7.65-14.76-17.09-15.41-6.45-.45-12.96-.11-19.45-.13-2.56,0-3.31,1.35-3.25,3.75.12,4.77.04,9.55.04,14.33Z"/>
    <path class="cls-1" d="M186.11,227.1c0-23.69,0-47.37,0-71.06,0-5.63,0-5.61,5.54-6.38,19.67-2.72,39.42-3.34,59.15-1.37,14.14,1.41,27.03,6.24,36.56,17.63,5.07,6.06,8.36,13.05,9.4,20.77,1.74,12.85.45,25.38-6.37,36.83-5.95,9.99-15.04,15.96-25.66,19.96-12.97,4.88-26.46,5.67-40.09,4.8-3.08-.2-3.75.82-3.73,3.6.09,15.86-.02,31.73.12,47.59.03,3.17-1.05,4.17-4.15,4.12-8.91-.14-17.82-.13-26.73.04-3.14.06-4.12-1.03-4.1-4.16.11-24.12.06-48.24.06-72.36h.01ZM220.84,197.43s.07,0,.1,0c0,6.62.13,13.24-.07,19.85-.08,2.56,1.02,3.56,3.24,3.9,9.12,1.42,18,.53,26.31-3.54,6.39-3.14,10.03-8.44,11.64-15.53,1.49-6.56.63-12.63-2.88-18.02-6.04-9.27-27.09-14.22-36.84-9-.73.39-1.43,1.63-1.44,2.48-.12,6.61-.07,13.23-.07,19.85Z"/>
  </g>
</svg>