<svg width="37" height="37" viewBox="0 0 37 37" fill="none" xmlns="http://www.w3.org/2000/svg">
<path d="M2.91069 28.5262C3.68469 30.9127 6.03715 32.4356 8.54727 32.4356H8.64581C8.8761 33.5595 9.48734 34.5695 10.3762 35.2949C11.2652 36.0202 12.3772 36.4165 13.5245 36.4167C14.3433 36.4167 15.1084 36.2106 15.7856 35.8559C16.0682 35.7009 16.3034 35.472 16.466 35.1936C16.6285 34.9153 16.7123 34.5979 16.7083 34.2756V2.42338C16.7119 2.0129 16.5741 1.61371 16.3179 1.29295C16.0618 0.972189 15.703 0.749437 15.3019 0.662168C14.403 0.48758 13.4716 0.614152 12.652 1.02229C11.319 1.66013 10.5378 3.0845 10.5378 4.56621V4.66475C9.54024 4.46115 8.50421 4.56837 7.56948 4.97197C6.63474 5.37557 5.84627 6.05612 5.31039 6.92183C4.77452 7.78754 4.51704 8.79677 4.57266 9.8134C4.62829 10.83 4.99435 11.8051 5.62148 12.6072C4.21696 12.8273 2.93734 13.5421 2.0135 14.6226C1.08965 15.7032 0.582416 17.0783 0.583314 18.5C0.583314 20.6106 1.67802 22.4614 3.32994 23.5382C2.55952 24.9195 2.3069 26.6664 2.91069 28.5262ZM31.3785 12.6072C32.0056 11.8051 32.3717 10.83 32.4273 9.8134C32.4829 8.79677 32.2254 7.78754 31.6896 6.92183C31.1537 6.05612 30.3652 5.37557 29.4305 4.97197C28.4957 4.56837 27.4597 4.46115 26.4621 4.66475V4.56621C26.4621 3.08629 25.6792 1.66013 24.3462 1.02229C23.5272 0.614031 22.5964 0.487444 21.6981 0.662168C21.2972 0.749745 20.9385 0.97258 20.6824 1.29327C20.4263 1.61396 20.2884 2.01299 20.2916 2.42338V34.2738C20.2916 34.9278 20.6356 35.5495 21.2161 35.8541C21.8934 36.2106 22.6566 36.4167 23.4754 36.4167C24.623 36.4164 25.7353 36.0199 26.6242 35.2942C27.5131 34.5685 28.1242 33.5581 28.3541 32.4338H28.4545C30.9628 32.4338 33.3171 30.9109 34.0911 28.5244C34.6949 26.6646 34.4422 24.9178 33.6718 23.5364C34.5133 22.9927 35.2053 22.247 35.6848 21.3673C36.1642 20.4876 36.4158 19.5019 36.4166 18.5C36.4175 17.0783 35.9103 15.7032 34.9865 14.6226C34.0626 13.5421 32.783 12.8273 31.3785 12.6072Z" fill="#5FC9DF"/>
</svg>
