<svg width="43" height="43" viewBox="0 0 43 43" fill="none" xmlns="http://www.w3.org/2000/svg">
<path d="M20.5827 38.9759C21.1094 39.2572 21.7705 39.2554 22.2973 38.9741C36.6521 31.2628 37.6716 16.1967 37.659 11.9128C37.6577 11.5685 37.5559 11.2321 37.3663 10.9447C37.1766 10.6573 36.9073 10.4315 36.5912 10.2949L22.1683 3.90584C21.9388 3.80467 21.6906 3.75256 21.4398 3.75287C21.189 3.75318 20.9409 3.80589 20.7117 3.90763L6.38908 10.2967C6.07768 10.4334 5.81214 10.6567 5.62409 10.9401C5.43604 11.2234 5.3334 11.5548 5.32842 11.8949C5.2675 16.1573 6.12571 31.2556 20.5827 38.9759ZM15.5409 18.4416L19.6492 22.5499L27.3408 14.8583L29.8742 17.3917L19.6492 27.6168L13.0075 20.975L15.5409 18.4416Z" fill="#5FC9DF"/>
</svg>
